<mxfile host="app.diagrams.net" modified="2023-09-28T02:09:40.357Z" agent="Mozilla/5.0 (Windows NT 10.0; Win64; x64) AppleWebKit/537.36 (KHTML, like Gecko) Chrome/117.0.0.0 Safari/537.36" etag="KkR8aMm_i5ZUW6c8nlsX" version="21.8.2" type="device" pages="3">
  <diagram name="Page-1" id="f_OqZgniQuVaRPA0awMV">
    <mxGraphModel dx="792" dy="492" grid="1" gridSize="10" guides="1" tooltips="1" connect="1" arrows="1" fold="1" page="1" pageScale="1" pageWidth="827" pageHeight="1169" math="0" shadow="0">
      <root>
        <mxCell id="0" />
        <mxCell id="1" parent="0" />
        <mxCell id="3ITuIZl3kFhbukzRSLMg-1" value="stop" style="rounded=1;whiteSpace=wrap;html=1;fillColor=#f8cecc;strokeColor=#b85450;fontStyle=1;fontSize=14;" parent="1" vertex="1">
          <mxGeometry x="200" y="430" width="120" height="60" as="geometry" />
        </mxCell>
        <mxCell id="3ITuIZl3kFhbukzRSLMg-6" value="" style="edgeStyle=orthogonalEdgeStyle;rounded=0;orthogonalLoop=1;jettySize=auto;html=1;" parent="1" source="3ITuIZl3kFhbukzRSLMg-2" target="3ITuIZl3kFhbukzRSLMg-3" edge="1">
          <mxGeometry relative="1" as="geometry" />
        </mxCell>
        <mxCell id="3ITuIZl3kFhbukzRSLMg-2" value="start" style="rounded=1;whiteSpace=wrap;html=1;fillColor=#f8cecc;strokeColor=#b85450;fontStyle=1;fontSize=14;" parent="1" vertex="1">
          <mxGeometry x="200" y="20" width="120" height="60" as="geometry" />
        </mxCell>
        <mxCell id="3ITuIZl3kFhbukzRSLMg-11" value="" style="edgeStyle=orthogonalEdgeStyle;rounded=0;orthogonalLoop=1;jettySize=auto;html=1;" parent="1" source="3ITuIZl3kFhbukzRSLMg-3" target="3ITuIZl3kFhbukzRSLMg-4" edge="1">
          <mxGeometry relative="1" as="geometry" />
        </mxCell>
        <mxCell id="3ITuIZl3kFhbukzRSLMg-3" value="input a, b" style="shape=parallelogram;perimeter=parallelogramPerimeter;whiteSpace=wrap;html=1;fixedSize=1;horizontal=1;fontSize=15;" parent="1" vertex="1">
          <mxGeometry x="200" y="120" width="120" height="60" as="geometry" />
        </mxCell>
        <mxCell id="3ITuIZl3kFhbukzRSLMg-12" value="" style="edgeStyle=orthogonalEdgeStyle;rounded=0;orthogonalLoop=1;jettySize=auto;html=1;" parent="1" source="3ITuIZl3kFhbukzRSLMg-4" target="3ITuIZl3kFhbukzRSLMg-5" edge="1">
          <mxGeometry relative="1" as="geometry" />
        </mxCell>
        <mxCell id="3ITuIZl3kFhbukzRSLMg-4" value="c = a+b" style="rounded=0;whiteSpace=wrap;html=1;fontSize=15;" parent="1" vertex="1">
          <mxGeometry x="200" y="210" width="120" height="60" as="geometry" />
        </mxCell>
        <mxCell id="3ITuIZl3kFhbukzRSLMg-9" value="" style="edgeStyle=orthogonalEdgeStyle;rounded=0;orthogonalLoop=1;jettySize=auto;html=1;" parent="1" source="3ITuIZl3kFhbukzRSLMg-5" target="3ITuIZl3kFhbukzRSLMg-1" edge="1">
          <mxGeometry relative="1" as="geometry" />
        </mxCell>
        <mxCell id="3ITuIZl3kFhbukzRSLMg-5" value="display c" style="shape=parallelogram;perimeter=parallelogramPerimeter;whiteSpace=wrap;html=1;fixedSize=1;fontSize=14;" parent="1" vertex="1">
          <mxGeometry x="200" y="310" width="120" height="60" as="geometry" />
        </mxCell>
      </root>
    </mxGraphModel>
  </diagram>
  <diagram id="tbqSpAbN_u1hKzeRooy5" name="s1-p28">
    <mxGraphModel dx="792" dy="492" grid="1" gridSize="10" guides="1" tooltips="1" connect="1" arrows="1" fold="1" page="1" pageScale="1" pageWidth="827" pageHeight="1169" math="0" shadow="0">
      <root>
        <mxCell id="0" />
        <mxCell id="1" parent="0" />
        <mxCell id="_OpUFQ_klqoeVhV2gIIT-6" value="" style="edgeStyle=orthogonalEdgeStyle;rounded=0;orthogonalLoop=1;jettySize=auto;html=1;" edge="1" parent="1" source="_OpUFQ_klqoeVhV2gIIT-1" target="_OpUFQ_klqoeVhV2gIIT-3">
          <mxGeometry relative="1" as="geometry" />
        </mxCell>
        <mxCell id="_OpUFQ_klqoeVhV2gIIT-1" value="start" style="rounded=1;whiteSpace=wrap;html=1;fillColor=#f8cecc;strokeColor=#b85450;fontStyle=1;fontSize=14;" vertex="1" parent="1">
          <mxGeometry x="160" y="70" width="120" height="60" as="geometry" />
        </mxCell>
        <mxCell id="_OpUFQ_klqoeVhV2gIIT-2" value="stop" style="rounded=1;whiteSpace=wrap;html=1;fillColor=#f8cecc;strokeColor=#b85450;fontStyle=1;fontSize=14;" vertex="1" parent="1">
          <mxGeometry x="160" y="430" width="120" height="60" as="geometry" />
        </mxCell>
        <mxCell id="_OpUFQ_klqoeVhV2gIIT-7" value="" style="edgeStyle=orthogonalEdgeStyle;rounded=0;orthogonalLoop=1;jettySize=auto;html=1;" edge="1" parent="1" source="_OpUFQ_klqoeVhV2gIIT-3" target="_OpUFQ_klqoeVhV2gIIT-4">
          <mxGeometry relative="1" as="geometry" />
        </mxCell>
        <mxCell id="_OpUFQ_klqoeVhV2gIIT-3" value="input C" style="shape=parallelogram;perimeter=parallelogramPerimeter;whiteSpace=wrap;html=1;fixedSize=1;fontStyle=1;fontSize=14;" vertex="1" parent="1">
          <mxGeometry x="160" y="160" width="120" height="60" as="geometry" />
        </mxCell>
        <mxCell id="_OpUFQ_klqoeVhV2gIIT-8" value="" style="edgeStyle=orthogonalEdgeStyle;rounded=0;orthogonalLoop=1;jettySize=auto;html=1;" edge="1" parent="1" source="_OpUFQ_klqoeVhV2gIIT-4" target="_OpUFQ_klqoeVhV2gIIT-5">
          <mxGeometry relative="1" as="geometry" />
        </mxCell>
        <mxCell id="_OpUFQ_klqoeVhV2gIIT-4" value="F= (9/5)*C + 32" style="rounded=0;whiteSpace=wrap;html=1;fontStyle=1;fontSize=14;fillColor=#fff2cc;strokeColor=#d6b656;" vertex="1" parent="1">
          <mxGeometry x="160" y="240" width="120" height="60" as="geometry" />
        </mxCell>
        <mxCell id="_OpUFQ_klqoeVhV2gIIT-9" value="" style="edgeStyle=orthogonalEdgeStyle;rounded=0;orthogonalLoop=1;jettySize=auto;html=1;" edge="1" parent="1" source="_OpUFQ_klqoeVhV2gIIT-5" target="_OpUFQ_klqoeVhV2gIIT-2">
          <mxGeometry relative="1" as="geometry" />
        </mxCell>
        <mxCell id="_OpUFQ_klqoeVhV2gIIT-5" value="display F" style="shape=parallelogram;perimeter=parallelogramPerimeter;whiteSpace=wrap;html=1;fixedSize=1;fontStyle=1;fontSize=14;" vertex="1" parent="1">
          <mxGeometry x="160" y="330" width="120" height="60" as="geometry" />
        </mxCell>
      </root>
    </mxGraphModel>
  </diagram>
  <diagram id="6imE5NKaEB8l0sNQGACu" name="s1-p28(2)">
    <mxGraphModel dx="792" dy="492" grid="1" gridSize="10" guides="1" tooltips="1" connect="1" arrows="1" fold="1" page="1" pageScale="1" pageWidth="827" pageHeight="1169" math="0" shadow="0">
      <root>
        <mxCell id="0" />
        <mxCell id="1" parent="0" />
        <mxCell id="TDUilbJB7cpjkzRJwPvC-6" value="" style="edgeStyle=orthogonalEdgeStyle;rounded=0;orthogonalLoop=1;jettySize=auto;html=1;" edge="1" parent="1" source="TDUilbJB7cpjkzRJwPvC-1" target="TDUilbJB7cpjkzRJwPvC-3">
          <mxGeometry relative="1" as="geometry" />
        </mxCell>
        <mxCell id="TDUilbJB7cpjkzRJwPvC-1" value="start" style="rounded=1;whiteSpace=wrap;html=1;fillColor=#f8cecc;strokeColor=#b85450;fontStyle=1;fontSize=14;" vertex="1" parent="1">
          <mxGeometry x="210" y="30" width="120" height="60" as="geometry" />
        </mxCell>
        <mxCell id="TDUilbJB7cpjkzRJwPvC-2" value="stop" style="rounded=1;whiteSpace=wrap;html=1;fillColor=#f8cecc;strokeColor=#b85450;fontStyle=1;fontSize=14;" vertex="1" parent="1">
          <mxGeometry x="210" y="400" width="120" height="60" as="geometry" />
        </mxCell>
        <mxCell id="TDUilbJB7cpjkzRJwPvC-7" value="" style="edgeStyle=orthogonalEdgeStyle;rounded=0;orthogonalLoop=1;jettySize=auto;html=1;" edge="1" parent="1" source="TDUilbJB7cpjkzRJwPvC-3" target="TDUilbJB7cpjkzRJwPvC-4">
          <mxGeometry relative="1" as="geometry" />
        </mxCell>
        <mxCell id="TDUilbJB7cpjkzRJwPvC-3" value="Input Bio, Phy, Che" style="shape=parallelogram;perimeter=parallelogramPerimeter;whiteSpace=wrap;html=1;fixedSize=1;fontStyle=1;fontSize=14;" vertex="1" parent="1">
          <mxGeometry x="185" y="120" width="170" height="60" as="geometry" />
        </mxCell>
        <mxCell id="TDUilbJB7cpjkzRJwPvC-8" value="" style="edgeStyle=orthogonalEdgeStyle;rounded=0;orthogonalLoop=1;jettySize=auto;html=1;" edge="1" parent="1" source="TDUilbJB7cpjkzRJwPvC-4" target="TDUilbJB7cpjkzRJwPvC-5">
          <mxGeometry relative="1" as="geometry" />
        </mxCell>
        <mxCell id="TDUilbJB7cpjkzRJwPvC-4" value="Total = Bio+Phy+Che&lt;br style=&quot;font-size: 14px;&quot;&gt;Average = Total/3" style="rounded=0;whiteSpace=wrap;html=1;fontStyle=1;fontSize=14;fillColor=#fff2cc;strokeColor=#d6b656;" vertex="1" parent="1">
          <mxGeometry x="190" y="210" width="160" height="60" as="geometry" />
        </mxCell>
        <mxCell id="TDUilbJB7cpjkzRJwPvC-9" value="" style="edgeStyle=orthogonalEdgeStyle;rounded=0;orthogonalLoop=1;jettySize=auto;html=1;" edge="1" parent="1" source="TDUilbJB7cpjkzRJwPvC-5" target="TDUilbJB7cpjkzRJwPvC-2">
          <mxGeometry relative="1" as="geometry" />
        </mxCell>
        <mxCell id="TDUilbJB7cpjkzRJwPvC-5" value="Print Total, Average" style="shape=parallelogram;perimeter=parallelogramPerimeter;whiteSpace=wrap;html=1;fixedSize=1;fontStyle=1;fontSize=14;" vertex="1" parent="1">
          <mxGeometry x="187.5" y="310" width="165" height="60" as="geometry" />
        </mxCell>
      </root>
    </mxGraphModel>
  </diagram>
</mxfile>
